<?xml version="1.0" encoding="utf-8"?>
<!-- Generator: Adobe Illustrator 17.0.0, SVG Export Plug-In . SVG Version: 6.00 Build 0)  -->
<!DOCTYPE svg PUBLIC "-//W3C//DTD SVG 1.1//EN" "http://www.w3.org/Graphics/SVG/1.1/DTD/svg11.dtd">
<svg version="1.1" id="Layer_1" xmlns="http://www.w3.org/2000/svg" xmlns:xlink="http://www.w3.org/1999/xlink" x="0px" y="0px"
	 width="1024px" height="1024px" viewBox="0 0 1024 1024" enable-background="new 0 0 1024 1024" xml:space="preserve">
<path fill="#fc7e0f" stroke="#FFFFFF" stroke-miterlimit="10" d="M512,956.01C266.78,956.01,67.99,757.22,67.99,512
	S266.78,67.99,512,67.99S956.01,266.78,956.01,512S757.22,956.01,512,956.01z M417.696,904.889
	c23.951-18.324,46.945-39.488,68.428-63.385c-10.983-12.569-21.54-25.823-31.623-39.732l-40.852,102.13
	C414.995,904.239,416.344,904.566,417.696,904.889z M511.411,811.209c13.854-17.87,26.894-36.978,38.965-57.245L512,658.023
	l-38.847,97.117C485.027,774.969,497.826,793.686,511.411,811.209z M534.632,839.175c22.157,24.939,45.946,46.975,70.769,65.935
	c1.655-0.392,3.304-0.796,4.951-1.208L567.44,796.623C556.99,811.518,546.034,825.717,534.632,839.175z M561.689,912.939
	c-17.975-13.974-35.388-29.356-52.03-46.152c-16.084,16.643-32.867,31.924-50.161,45.803c17.186,2.231,34.708,3.393,52.503,3.393
	C528.825,915.983,545.404,914.937,561.689,912.939z M512,108.017c-223.114,0-403.983,180.87-403.983,403.983
	c0,178.455,115.718,329.867,276.204,383.338L487.967,584.1c-30.191-10.06-51.968-38.528-51.968-72.1
	c0-41.974,34.027-76.001,76.001-76.001c41.974,0,76.001,34.027,76.001,76.001c0,33.572-21.777,62.04-51.968,72.1l103.746,311.238
	C800.266,841.867,915.983,690.455,915.983,512C915.983,288.886,735.114,108.017,512,108.017z M736.866,736.866l-28.285-28.285
	C758.89,658.271,790.007,588.77,790.007,512s-31.117-146.271-81.426-196.581l28.285-28.285
	c57.548,57.548,93.142,137.05,93.142,224.866C830.008,599.815,794.414,679.318,736.866,736.866z M621.599,621.599
	c28.049-28.049,45.397-66.798,45.397-109.599c0-42.801-17.349-81.55-45.397-109.599l28.287-28.287
	C685.174,409.402,707,458.152,707,512c0,53.848-21.826,102.598-57.114,137.886L621.599,621.599z M374.114,649.886
	C338.826,614.598,317,565.848,317,512c0-53.848,21.826-102.598,57.114-137.886l28.287,28.287
	C374.353,430.45,357.004,469.199,357.004,512c0,42.801,17.349,81.55,45.397,109.599L374.114,649.886z M287.134,736.866
	c-57.548-57.548-93.143-137.05-93.143-224.866c0-87.815,35.594-167.317,93.143-224.866l28.285,28.285
	C265.11,365.729,233.993,435.231,233.993,512c0,76.77,31.117,146.271,81.426,196.581L287.134,736.866z"/>
</svg>
